<svg version="1.1" viewBox="0 0 401 239.8" xmlns="http://www.w3.org/2000/svg">
  <path transform="matrix(.1333 0 0 -.1333 0 239.8)" d="m2769 153.2c-12.05-30 13.79-42.12 40.97-19.41 176.6 147.8 222.3 457.4 186.1 502.1-35.9 44.33-344.7 82.54-533.2-49.83-28.97-20.34-23.99-48.44 8.17-44.59 106.2 12.72 342.4 41.08 384.5-12.82 42.15-53.96-46.82-276.2-86.57-375.4zm-98.3 295.9c-369.1-156.6-770.2-232.3-1135-232.3-541 0-1065 148.4-1488 394.9-37.06 21.56-64.54-16.45-33.72-44.29 392.6-354.4 911.3-567.4 1487-567.4 411 0 888.4 129.2 1218 372.2 54.46 40.25 7.79 100.5-47.86 76.93zm-141.3 409.4c-52.5 0-103.8 5.848-154 17.5-50.17 11.65-88.67 25.08-115.5 40.25-16.34 9.317-26.55 18.64-30.62 28-4.1 9.329-6.12 18.64-6.12 28v50.75c0 21 7.57 31.5 22.75 31.5 5.82 0 11.94-1.18 18.37-3.5 6.4-2.35 14.87-5.85 25.38-10.5 33.82-15.18 70.57-26.85 110.2-35 39.65-8.171 79.33-12.25 119-12.25 63 0 111.7 11.07 146.1 33.25 34.4 22.15 51.62 53.65 51.62 94.5 0 28-9.04 51.33-27.12 70-18.1 18.65-51.63 36.15-100.6 52.5l-145.3 45.5c-73.49 23.33-126.9 57.15-160.1 101.5-33.25 44.32-49.88 92.75-49.88 145.2 0 42 9.03 79.02 27.13 111.1 18.08 32.08 42 59.51 71.75 82.26 29.75 22.74 64.45 39.94 104.1 51.62 39.65 11.65 81.65 17.5 126 17.5 22.15 0 44.62-1.48 67.37-4.37 22.75-2.93 44.33-6.73 64.75-11.38 20.4-4.68 39.37-9.93 56.87-15.75 17.5-5.85 31.51-11.68 42-17.5 14.01-8.18 23.9-16.35 29.76-24.5 5.82-8.18 8.75-19.25 8.75-33.25v-47.25c0-21-7.61-31.5-22.75-31.5-8.18 0-21 4.07-38.5 12.25-57.18 25.65-121.4 38.5-192.5 38.5-57.18 0-101.5-9.35-133-28-31.49-18.68-47.24-48.43-47.24-89.25 0-28 9.9-51.63 29.74-70.87 19.83-19.25 56.58-37.63 110.3-55.13l141.7-45.5c72.33-23.35 124-55.43 154.9-96.25 30.9-40.85 46.37-87.5 46.37-140 0-43.18-8.75-81.97-26.25-116.4-17.5-34.42-41.72-63.87-72.62-88.37-30.92-24.5-67.97-43.18-111.1-56.01-43.17-12.82-90.42-19.25-141.7-19.25zm-1285 26.25c-17.5 0-30.35 3.204-38.49 9.629-8.18 6.395-15.18 19.52-21.01 39.38l-234.5 773.5c-5.859 19.82-8.75 33.25-8.75 40.25 0 16.32 8.145 24.5 24.49 24.5h98.01c18.64 0 31.77-3.23 39.37-9.62 7.57-6.43 14.27-19.56 20.12-39.38l168-661.5 155.7 661.5c4.65 19.82 11.08 32.95 19.26 39.38 8.14 6.39 21.57 9.62 40.24 9.62h80.5c18.65 0 32.08-3.23 40.26-9.62 8.14-6.43 14.57-19.56 19.24-39.38l157.5-670.2 173.3 670.2c5.82 19.82 12.52 32.95 20.12 39.38 7.57 6.39 20.7 9.62 39.38 9.62h92.74c16.33 0 24.5-8.18 24.5-24.5 0-4.68-0.59-9.93-1.74-15.75-1.18-5.85-3.5-14-7.01-24.5l-241.5-773.5c-5.86-19.86-12.85-32.98-21.01-39.38-8.17-6.425-20.99-9.629-38.49-9.629h-85.75c-18.68 0-32.1 3.497-40.26 10.5-8.17 7.003-14.6 20.4-19.25 40.25l-155.8 644-154-644c-4.68-19.85-11.11-33.25-19.25-40.25-8.18-7-21.6-10.5-40.25-10.5zm-803.2 108.5c32.66 0 67.08 6.132 103.3 18.38 36.15 12.24 67.64 33.52 94.5 63.87 16.32 18.65 27.69 39.95 34.12 63.88 6.406 23.89 9.633 52.77 9.633 86.62v42c-29.18 7-59.81 12.52-91.88 16.62-32.1 4.08-63.3 6.13-93.62 6.13-66.5 0-116.1-13.42-148.8-40.25-32.68-26.85-49-65.35-49-115.5 0-46.68 12.25-81.98 36.75-105.9 24.5-23.93 59.5-35.88 105-35.88zm406 152.3c0-37.35 3.77-67.1 11.38-89.25 7.57-22.18 18.37-46.1 32.38-71.75 4.648-8.176 7-15.74 7-22.75 0-10.5-6.426-20.43-19.26-29.75l-63-41.99c-9.348-5.832-18.1-8.75-26.25-8.75-10.5 0-20.42 4.649-29.75 13.99-14 14-25.98 29.45-35.88 46.38-9.922 16.89-20.13 36.45-30.62 58.62-78.18-92.18-176.2-138.3-294-138.3-84 0-150.5 23.91-199.5 71.76-49 47.82-73.51 112-73.51 192.5 0 85.15 30.33 153.7 91.01 205.6 60.64 51.89 142.3 77.87 245 77.87 33.82 0 69.12-2.63 105.9-7.87 36.76-5.25 74.95-12.56 114.6-21.88v73.5c0 75.82-15.75 129.2-47.25 160.1-31.5 30.89-85.75 46.37-162.8 46.37-35 0-70.88-4.38-107.6-13.13-36.75-8.75-72.63-20.12-107.6-34.12-16.35-7-28-11.37-35-13.13-6.992-1.74-12.25-2.62-15.74-2.62-14 0-21 10.5-21 31.5v49c0 16.32 2.324 28 7 35 4.649 7 14 14 28 21 35 17.5 77 32.65 126 45.5 49 12.82 100.9 19.25 155.7 19.25 119 0 206.2-27.12 261.6-81.38 55.4-54.24 83.12-136.2 83.12-245.9v-325.5" style="fill:#191c22"/>
</svg>
