<svg id="b" version="1.1" viewBox="0 0 406.6 415.5" xmlns="http://www.w3.org/2000/svg">
  <defs>
    <style>.cls-1 {
        fill: #231815;
      }

      .cls-1, .cls-2 {
        stroke-width: 0px;
      }

      .cls-2 {
        fill: url(#a);
      }</style>
    <radialGradient id="a" cx="331.5" cy="116.6" r="297.7" gradientTransform="translate(-80.1 -80.2)" gradientUnits="userSpaceOnUse">
      <stop stop-color="#f7bfa4" offset="0"/>
      <stop stop-color="#e60012" offset=".4"/>
      <stop stop-color="#a00000" offset="1"/>
    </radialGradient>
  </defs>
  <g transform="translate(-80.1 -80.2)">
    <polygon class="cls-1" points="94.6 426.4 80.7 426.4 80.7 494.7 94.6 494.7 94.6 467 125.9 467 125.9 494.7 139.7 494.7 139.7 426.4 125.9 426.4 125.9 454 94.6 454"/>
    <path class="cls-1" d="m204 465.5c0 11.1-5.5 17-15.5 17s-15.6-6.1-15.6-17.5v-38.6h-13.9v39.1c0 19.2 10.7 30.2 29.3 30.2s29.6-11.2 29.6-30.8v-38.5h-13.9z"/>
    <polygon class="cls-1" points="337.4 426.4 321.9 473.4 306.8 426.4 292 426.4 315.8 494.7 327.3 494.7 342.8 449.9 358.4 494.7 370 494.7 393.7 426.4 379.3 426.4 364.2 473.4 348.7 426.4"/>
    <polygon class="cls-1" points="443.8 452.9 418.6 452.9 418.6 438.9 455.2 438.9 455.2 426.4 404.9 426.4 404.9 494.7 456.5 494.7 456.5 482.2 418.6 482.2 418.6 465.3 443.8 465.3"/>
    <rect class="cls-1" x="473" y="426.4" width="13.7" height="68.2"/>
    <path class="cls-1" d="m276.5 480.5 6.1 14.2h14.5l-30-68.3h-12.2l-30.1 68.3h14.2l6.2-14.2zm-15.7-36.8 10.5 24.5h-21l10.4-24.5z"/>
  </g>
  <path class="cls-2" d="m377.2 121.4c2.3-35-33-67.4-33-67.4s-65.3 79.1-112.9 183c-0.2 0.5-0.3 1.5 0.2 1.9 0.4 0.3 1.1 0.5 1.8 0.2 17.8-8.9 92-47 123.2-76.8 0 0 19.5-15.7 20.6-40.9zm-83.2-79s-8.2-30.5-41.3-38.5c0 0-9.5-2.4-19.7-3.8 0 0-37 47.7-19 227.5 0 0.9 0.6 1.3 1 1.4 0.7 0.2 1.3 0 1.8-0.7 11.9-17.2 66-97.4 77-146.2 0 0 6-23.6 0.2-39.6zm-50.8 222.1c-0.2 0.4-0.4 1.4 0.4 1.9 12 8.6 48.2 33.9 65.7 38.9 0 0 32.3 11 60.4-37.2 0 0-93.9-3.3-125.1-4.4-0.4 0-1.1 0.3-1.3 0.8zm159.7-106.9s-106.2 57-161.1 94c-0.4 0.3-0.9 0.8-0.6 1.8 0.1 0.5 0.6 1 1.3 1 19.7 0 94.1 0.1 96-0.2 0 0 9.6-0.4 21.5-4.9 0 0 26.5-8.4 40.2-38.5 0 0 12.3-24.5 2.8-53.2zm-238.2 94c-54.9-37-161.1-94-161.1-94-9.5 28.6 2.8 53.2 2.8 53.2 13.8 30.1 40.2 38.5 40.2 38.5 11.9 4.6 21.5 4.9 21.5 4.9 1.9 0.3 76.3 0.3 96 0.2 0.7 0 1.2-0.5 1.3-1 0.3-1-0.2-1.5-0.6-1.8zm-2.8 12.1c-31.2 1.1-125.1 4.4-125.1 4.4 28.1 48.2 60.4 37.2 60.4 37.2 17.5-4.9 53.7-30.3 65.7-38.9 0.8-0.5 0.6-1.5 0.4-1.9-0.3-0.5-0.9-0.8-1.3-0.8zm-8.2-259.8c-33.1 8.1-41.3 38.5-41.3 38.5-5.8 16 0.2 39.6 0.2 39.6 11 48.8 65.1 129.1 77 146.2 0.4 0.6 1.1 0.9 1.8 0.7 0.4-0.1 0.9-0.5 1-1.4 18-179.9-19-227.5-19-227.5-10.1 1.4-19.7 3.8-19.7 3.8zm-91.5 50.1s-35.2 32.4-33 67.4c1 25.2 20.6 40.9 20.6 40.9 31.2 29.8 105.4 68 123.2 76.8 0.7 0.4 1.4 0.1 1.8-0.2 0.6-0.5 0.5-1.4 0.2-1.9-47.6-103.9-112.9-183-112.9-183z" style="fill:url(#a)"/>
</svg>
