<svg version="1.1" viewBox="0 0 450.2 96" xmlns="http://www.w3.org/2000/svg">
  <path transform="matrix(.1333 0 0 -.1333 0 96)" d="m3229 394h-108.6v-250h-73.81v250h-51.82v59.65h51.82v43.08c0 32.54 10.59 59.2 31.78 79.98 21.19 20.79 48.35 31.18 81.49 31.18 8.83 0 16.67-0.453 23.5-1.36 6.83-0.902 12.85-2.257 18.08-4.062v-62.96c-2.42 1.406-6.63 3.109-12.66 5.121-6.03 2.004-12.95 3.016-20.78 3.016-15.27 0-27.02-4.774-35.26-14.31-8.23-9.539-12.34-23.65-12.34-42.32v-37.36h108.6v69.59l73.21 22.29v-91.89h73.81v-59.65h-73.81v-144.9c0-19.09 3.46-32.54 10.39-40.37 6.93-7.836 17.82-11.75 32.69-11.75 4.22 0 9.29 1.004 15.22 3.011 5.92 2.004 11.09 4.414 15.51 7.231v-60.25c-4.63-2.61-12.31-5.016-23.05-7.231-10.74-2.211-21.34-3.312-31.78-3.312-30.73 0-53.78 8.176-69.14 24.55-15.37 16.37-23.05 41.02-23.05 73.96zm-484.1-97.3c0-32.34 7.33-57.04 22-74.11 14.65-17.07 35.64-25.6 62.95-25.6 26.52 0 46.7 8.531 60.55 25.6 13.86 17.07 20.79 42.38 20.79 75.92 0 33.33-7.18 58.49-21.54 75.47-14.36 16.97-34.49 25.45-60.39 25.45-26.72 0-47.45-8.887-62.22-26.66-14.76-17.77-22.14-43.13-22.14-76.07zm-75.92-2.406c0 51.21 14.46 91.77 43.38 121.7 28.93 29.93 69.09 44.89 120.5 44.89 48.4 0 86.21-14.41 113.4-43.23 27.21-28.82 40.82-67.74 40.82-116.7 0-50.21-14.46-90.17-43.38-119.9-28.92-29.73-68.28-44.59-118.1-44.59-48.01 0-86.11 14.1-114.3 42.32-28.22 28.21-42.33 66.73-42.33 115.5zm-164.2 78.02c0-10.44 3.31-18.62 9.94-24.56 6.63-5.918 21.29-13.4 43.99-22.44 29.11-11.65 49.55-24.75 61.3-39.32 11.75-14.56 17.62-32.18 17.62-52.87 0-29.12-11.19-52.52-33.59-70.2-22.39-17.68-52.67-26.51-90.83-26.51-12.85 0-27.06 1.555-42.63 4.672-15.56 3.109-28.76 7.074-39.61 11.89v71.7c13.26-9.239 27.52-16.56 42.78-21.98 15.26-5.426 29.12-8.14 41.57-8.14 16.47 0 28.62 2.308 36.46 6.929 7.83 4.621 11.74 12.36 11.74 23.2 0 10.05-4.06 18.53-12.19 25.46-8.14 6.929-23.56 14.92-46.25 23.96-26.91 11.24-45.99 23.9-57.24 37.95-11.25 14.06-16.87 31.93-16.87 53.62 0 27.91 11.1 50.86 33.29 68.84 22.19 17.97 50.96 26.96 86.31 26.96 10.84 0 23-1.203 36.45-3.61 13.46-2.414 24.7-5.531 33.75-9.343v-69.29c-9.65 6.43-20.9 11.95-33.75 16.58-12.85 4.617-25.61 6.925-38.26 6.925-13.85 0-24.65-2.71-32.38-8.132-7.74-5.426-11.6-12.86-11.6-22.3zm-350.6-75.61c0-32.34 7.32-57.04 21.99-74.11 14.65-17.07 35.64-25.6 62.96-25.6 26.51 0 46.69 8.531 60.55 25.6s20.79 42.38 20.79 75.92c0 33.33-7.18 58.49-21.54 75.47-14.36 16.97-34.5 25.45-60.4 25.45-26.72 0-47.45-8.887-62.22-26.66-14.76-17.77-22.13-43.13-22.13-76.07zm-75.92-2.406c0 51.21 14.45 91.77 43.38 121.7 28.92 29.93 69.08 44.89 120.5 44.89 48.4 0 86.21-14.41 113.4-43.23 27.21-28.82 40.81-67.74 40.81-116.7 0-50.21-14.46-90.17-43.37-119.9-28.93-29.73-68.29-44.59-118.1-44.59-48.01 0-86.11 14.1-114.3 42.32-28.22 28.21-42.33 66.73-42.33 115.5zm-31.37 164.5c5.83 0 11.05-0.407 15.67-1.203 4.62-0.801 8.54-1.805 11.75-3.016v-73.8c-3.82 2.813-9.39 5.473-16.72 7.981-7.33 2.511-16.22 3.765-26.66 3.765-17.88 0-32.99-7.527-45.34-22.59-12.35-15.06-18.53-38.26-18.53-69.59v-156.4h-72.9v309.7h72.9v-48.8h1.21c6.63 16.87 16.67 30.07 30.12 39.62 13.46 9.531 29.63 14.3 48.5 14.3zm-279.6-261.8c10.84 0 22.78 2.504 35.84 7.531 13.05 5.019 25.1 11.64 36.15 19.88v-67.78c-11.64-6.628-24.85-11.65-39.61-15.06-14.76-3.414-30.98-5.121-48.66-5.121-45.59 0-82.64 14.4-111.2 43.23-28.52 28.82-42.78 65.62-42.78 110.4 0 49.8 14.57 90.83 43.69 123.1 29.12 32.23 70.39 48.34 123.8 48.34 13.66 0 27.46-1.758 41.43-5.274 13.95-3.512 25.04-7.574 33.28-12.2v-69.9c-11.25 8.239-22.74 14.61-34.49 19.13-11.75 4.516-23.76 6.778-36 6.778-28.72 0-51.92-9.336-69.59-28.02-17.68-18.68-26.51-43.88-26.51-75.62 0-31.33 8.48-55.74 25.45-73.2 16.97-17.48 40.02-26.21 69.15-26.21zm-221.1 256.7v-309.7h-72.9v309.7zm-80.44 89.47c0 12.05 4.37 22.14 13.11 30.28 8.74 8.132 19.13 12.2 31.18 12.2 12.85 0 23.5-4.172 31.93-12.5 8.44-8.336 12.66-18.34 12.66-29.98 0-11.85-4.32-21.79-12.96-29.82-8.64-8.035-19.18-12.05-31.63-12.05-12.46 0-22.95 4.063-31.48 12.2-8.54 8.141-12.81 18.03-12.81 29.68zm-62.72 32.84v-432h-75.02v338.6h-1.2l-134.1-338.6h-49.71l-137.4 338.6h-0.91v-338.6h-69.29v432h107.5l124.1-320.2h1.8l131 320.2h103" style="fill:#706d6e"/>
  <path transform="matrix(.1333 0 0 -.1333 0 96)" d="m342.2 377.8h-342.2v342.2h342.2v-342.2" style="fill:#f1511b"/>
  <path transform="matrix(.1333 0 0 -.1333 0 96)" d="m720 377.8h-342.2v342.2h342.2v-342.2" style="fill:#80cc28"/>
  <path transform="matrix(.1333 0 0 -.1333 0 96)" d="m342.2 0h-342.2v342.2h342.2v-342.2" style="fill:#00adef"/>
  <path transform="matrix(.1333 0 0 -.1333 0 96)" d="m720 0h-342.2v342.2h342.2v-342.2" style="fill:#fbbc09"/>
</svg>
