<svg width="687" height="86" viewBox="0 0 687 86" fill="none" xmlns="http://www.w3.org/2000/svg">
<path d="M282.343 54.2955C282.343 59.912 280.713 64.5896 277.453 68.2926C274.193 71.9956 270.011 73.856 264.908 73.856C260.408 73.856 256.634 72.3145 253.551 69.2493C250.486 66.1842 248.945 62.0205 248.945 56.776V23.7145H237.694V60.0183C237.694 67.3713 240.174 73.2536 245.118 77.6653C250.061 82.0771 255.943 84.2918 262.765 84.2918C271.163 84.2918 277.683 80.9254 282.325 74.1749V83.2819H293.576V23.7145H282.325V54.2955H282.343Z" fill="#1A1B20"/>
<path d="M338.721 22.7042H338.384C329.472 22.8459 322.598 26.3718 317.814 33.264V4.59656H306.563V83.2992H317.814V73.9619C322.757 80.7833 329.614 84.1851 338.384 84.1851C347.155 84.1851 353.941 81.1908 359.628 75.1844C365.315 69.1958 368.168 61.9492 368.168 53.4801C368.168 45.011 365.315 37.5695 359.628 31.6163C353.941 25.6631 346.96 22.6865 338.721 22.6865V22.7042ZM351.708 67.9556C347.775 71.9598 342.991 73.9619 337.374 73.9619C331.758 73.9619 327.063 71.9421 323.094 67.8847C319.125 63.845 317.141 59.0435 317.141 53.4978C317.141 47.9521 319.107 43.0443 323.041 38.9869C326.974 34.9472 331.758 32.9097 337.374 32.9097C342.991 32.9097 347.686 34.9295 351.655 38.9869C355.624 43.0266 357.608 47.8635 357.608 53.4978C357.608 59.1321 355.641 63.9336 351.708 67.9379V67.9556Z" fill="#1A1B20"/>
<path fill-rule="evenodd" clip-rule="evenodd" d="M378.639 3.14374C380.074 1.70859 381.864 0.999878 384.043 0.999878C386.134 0.999878 387.923 1.72631 389.376 3.14374C390.847 4.56116 391.573 6.3861 391.573 8.42365C391.573 10.4612 390.829 12.1621 389.376 13.5441C387.923 14.9261 386.222 15.6171 384.043 15.6171C381.864 15.6171 380.039 14.9438 378.586 13.5973C377.115 12.2507 376.389 10.5144 376.389 8.42365C376.389 6.33295 377.133 4.56116 378.639 3.14374ZM378.302 23.7144H389.553V83.2995H378.302V23.7144Z" fill="#1A1B20"/>
<path d="M430.039 32.9275C433.937 32.9275 437.428 33.9906 440.493 36.1345C443.558 38.2783 445.932 41.0955 447.58 44.6213L458.033 41.9282C455.712 36.2408 452.045 31.5987 447.013 28.0374C441.999 24.4761 436.329 22.7043 430.039 22.7043C421.57 22.7043 414.377 25.6987 408.459 31.705C402.47 37.6936 399.458 44.9757 399.458 53.5157C399.458 62.0557 402.399 69.1251 408.282 75.1492C414.164 81.191 421.411 84.203 430.039 84.203C436.418 84.203 442.087 82.4489 447.066 78.9231C452.045 75.3972 455.695 70.7551 458.033 64.9791L447.58 62.286C446.003 65.8119 443.664 68.629 440.546 70.7729C437.428 72.9167 433.937 73.9798 430.039 73.9798C424.494 73.9798 419.763 71.9777 415.883 67.9734C411.985 63.9692 410.036 59.15 410.036 53.5334C410.036 47.9168 411.967 43.0799 415.83 39.0225C419.692 34.9828 424.423 32.9453 430.057 32.9453L430.039 32.9275Z" fill="#1A1B20"/>
<path d="M478.886 4.59698H467.635V83.2997H478.886V4.59698Z" fill="#1A1B20"/>
<path d="M519.512 22.7043C511.043 22.7043 503.831 25.6987 497.878 31.705C491.925 37.6936 488.948 44.9402 488.948 53.4094C488.948 61.8785 491.925 69.1251 497.878 75.1669C503.831 81.2087 511.043 84.2207 519.512 84.2207C527.981 84.2207 535.21 81.191 541.216 75.1137C547.134 69.1251 550.093 61.8785 550.093 53.4094C550.093 44.9402 547.116 37.8 541.163 31.7759C535.21 25.7518 527.981 22.7221 519.529 22.7221L519.512 22.7043ZM533.686 67.8494C529.788 71.8537 525.075 73.8558 519.512 73.8558C513.948 73.8558 509.235 71.8714 505.355 67.9026C501.457 63.9338 499.508 59.0968 499.508 53.3917C499.508 47.6865 501.44 42.9736 505.302 39.0048C509.165 35.036 513.895 33.0516 519.529 33.0516C525.164 33.0516 529.894 35.036 533.757 39.0048C537.619 42.9736 539.551 47.7751 539.551 53.3917C539.551 59.0082 537.602 63.8275 533.704 67.8317L533.686 67.8494Z" fill="#1A1B20"/>
<path d="M603.831 54.2955C603.831 59.912 602.201 64.5896 598.941 68.2926C595.681 71.9956 591.499 73.856 586.397 73.856C581.896 73.856 578.122 72.3145 575.04 69.2493C571.974 66.1842 570.433 62.0205 570.433 56.776V23.7145H559.182V60.0183C559.182 67.3713 561.663 73.2536 566.606 77.6653C571.549 82.0771 577.432 84.2918 584.253 84.2918C592.651 84.2918 599.171 80.9254 603.813 74.1749V83.2819H615.064V23.7145H603.813V54.2955H603.831Z" fill="#1A1B20"/>
<path d="M675.749 4.59698V33.1582C670.806 26.195 663.949 22.7046 655.179 22.7046C646.94 22.7046 639.924 25.6635 634.148 31.5813C628.301 37.5699 625.377 44.8874 625.377 53.4982C625.377 62.1091 628.283 69.1077 634.095 75.1317C639.906 81.1735 646.922 84.1855 655.179 84.1855C663.949 84.1855 670.806 80.7837 675.749 73.9623V83.2996H687V4.59698H675.749ZM670.469 67.8851C666.501 71.9248 661.734 73.9623 656.189 73.9623C650.643 73.9623 645.7 71.978 641.802 68.0092C637.904 64.0404 635.955 59.2034 635.955 53.4982C635.955 47.7931 637.922 43.0447 641.855 38.9873C645.788 34.9477 650.572 32.9101 656.189 32.9101C661.805 32.9101 666.589 34.9299 670.523 38.9873C674.456 43.0447 676.423 47.864 676.423 53.4982C676.423 59.1325 674.438 63.8455 670.469 67.8851Z" fill="#1A1B20"/>
<path d="M0.529632 57.5482V57.8408L0.791987 57.9701L40.5004 77.5492L41.1787 77.8837V77.1273V68.257V67.9625L40.9137 67.8339L13.0224 54.2974C11.9674 53.7362 10.8717 53.2708 9.74902 52.9012C9.37806 52.779 9.037 52.6653 8.72667 52.5615C9.01587 52.4658 9.32914 52.3568 9.6662 52.2342C10.7165 51.8659 11.8316 51.4032 12.9982 50.8471L13.0011 50.8456L40.9003 37.3053L41.1653 37.1767V36.8822V28.2803V27.524L40.487 27.8584L0.792045 47.424L0.529632 47.5534V47.8459V57.5482Z" fill="#FF5C12" stroke="#FF5C12" stroke-width="0.940735"/>
<path d="M168.422 28.2803V36.9556L168.079 37.2985L168.673 37.5872L196.565 51.1236C197.614 51.6819 198.702 52.1711 199.814 52.6052L199.826 52.6098L199.838 52.6138C200.194 52.7311 200.522 52.8362 200.822 52.9294C200.54 53.0346 200.237 53.1531 199.913 53.2834C198.865 53.6513 197.753 54.1131 196.589 54.6679L196.587 54.6688L168.688 68.1151L168.422 68.2434V68.5388V77.1408V77.8971L169.1 77.5626L208.808 57.9835L209.071 57.8542V57.5617V47.8594V47.5668L208.808 47.4375L169.1 27.8584L168.422 27.5239V28.2803Z" fill="#FF5C12" stroke="#FF5C12" stroke-width="0.940735"/>
<path d="M44.8176 52.9367L44.8176 52.9369C45.4577 70.8594 60.8789 85.4094 79.1988 85.4094H132.984C150.069 85.4094 164.471 71.8257 165.071 55.0977C165.384 46.4752 162.25 38.3129 156.27 32.1153C150.29 25.9176 142.251 22.4973 133.628 22.4973H133.623C133.47 22.4973 133.318 22.4973 133.162 22.4996C129.935 9.70753 118.431 0.529571 104.83 0.529571C93.1901 0.529571 82.7287 7.37796 78.0567 18.0179C69.0016 18.1381 60.5595 21.7782 54.2489 28.3175C47.8395 34.9582 44.491 43.6975 44.8176 52.9367ZM131.835 76.4036L131.849 76.417H79.1988C65.6576 76.417 54.2698 65.722 53.8094 52.6084C53.5723 45.824 56.0214 39.413 60.7226 34.5537L60.7231 34.5533C65.4253 29.6799 71.7311 26.9942 78.5278 26.9942C81.8711 26.9942 84.8597 25.0016 86.1541 21.9291L86.1542 21.929C89.3284 14.3869 96.6459 9.52202 104.817 9.52202C113.959 9.52202 121.704 15.5037 124.206 23.9412C111.452 27.95 102.159 39.8917 102.159 53.9534V54.4237H102.629H110.681H111.151V53.9534C111.151 43.1412 118.821 34.0995 129.016 31.9655L130.13 31.7931C130.13 31.793 130.13 31.793 130.13 31.7929C130.737 31.7007 131.291 31.6346 131.821 31.5817C132.417 31.5287 133.018 31.4898 133.615 31.4898C139.767 31.4898 145.509 33.9336 149.782 38.3509C154.055 42.7815 156.289 48.6024 156.065 54.7683L156.065 54.7688C155.645 66.6877 145.291 76.4036 132.971 76.4036H131.835Z" fill="#FF5C12" stroke="#FF5C12" stroke-width="0.940735"/>
</svg>
